<?xml version="1.0" standalone="no"?><!-- Generator: Gravit.io --><svg xmlns="http://www.w3.org/2000/svg" xmlns:xlink="http://www.w3.org/1999/xlink" style="isolation:isolate" viewBox="0 0 561 650" width="561" height="650"><defs><clipPath id="_clipPath_kX67afpiKEp4SiSGJJn2MDhjdOgyoKBN"><rect width="561" height="650"/></clipPath></defs><g clip-path="url(#_clipPath_kX67afpiKEp4SiSGJJn2MDhjdOgyoKBN)"><rect x="54" y="389" width="459.763" height="177" transform="matrix(1,0,0,1,0,0)" fill="none" vector-effect="non-scaling-stroke" stroke-width="1" stroke="rgb(0,0,0)" stroke-linejoin="miter" stroke-linecap="square" stroke-miterlimit="3"/><path d=" M 234.038 93.437 L 358.519 138.086 L 259.155 213.186 L 134.674 168.536 L 234.038 93.437 Z " fill="none" vector-effect="non-scaling-stroke" stroke-width="1" stroke="rgb(0,0,0)" stroke-linejoin="miter" stroke-linecap="square" stroke-miterlimit="3"/><path d=" M 203.745 141.203 L 229.172 150.857 L 216.217 160.684 L 190.79 151.03 L 203.745 141.203 Z " fill="rgb(219,218,218)"/><path d=" M 234.627 157.684 L 260.053 167.338 L 247.098 177.165 L 221.672 167.511 L 234.627 157.684 Z " fill="rgb(219,218,218)"/><rect x="389.763" y="398.25" width="118" height="67.5" transform="matrix(1,0,0,1,0,0)" fill="none" vector-effect="non-scaling-stroke" stroke-width="1" stroke="rgb(0,0,0)" stroke-linejoin="miter" stroke-linecap="square" stroke-miterlimit="3"/><rect x="192" y="483.5" width="98.526" height="74" transform="matrix(1,0,0,1,0,0)" fill="none" vector-effect="non-scaling-stroke" stroke-width="1" stroke="rgb(0,0,0)" stroke-linejoin="miter" stroke-linecap="square" stroke-miterlimit="3"/><path d=" M 69 430.5 C 69 419.738 77.738 411 88.5 411 C 99.262 411 108 419.738 108 430.5 C 108 441.262 99.262 450 88.5 450 C 77.738 450 69 441.262 69 430.5 Z " fill="none" vector-effect="non-scaling-stroke" stroke-width="2" stroke="rgb(70,70,70)" stroke-linejoin="miter" stroke-linecap="square" stroke-miterlimit="3"/><path d=" M 153 430.5 C 153 419.738 161.738 411 172.5 411 C 183.262 411 192 419.738 192 430.5 C 192 441.262 183.262 450 172.5 450 C 161.738 450 153 441.262 153 430.5 Z " fill="none" vector-effect="non-scaling-stroke" stroke-width="2" stroke="rgb(70,70,70)" stroke-linejoin="miter" stroke-linecap="square" stroke-miterlimit="3"/><line x1="153" y1="430.5" x2="121.526" y2="430.5" vector-effect="non-scaling-stroke" stroke-width="2" stroke="rgb(70,70,70)" stroke-linejoin="miter" stroke-linecap="square" stroke-miterlimit="3"/><polygon points="111,430.5,120.526,425,120.526,436" fill="none" vector-effect="non-scaling-stroke" stroke-width="2" stroke="rgb(70,70,70)" stroke-linejoin="round" stroke-linecap="round" stroke-miterlimit="3"/><path d=" M 238 430.5 C 238 419.738 246.738 411 257.5 411 C 268.262 411 277 419.738 277 430.5 C 277 441.262 268.262 450 257.5 450 C 246.738 450 238 441.262 238 430.5 Z " fill="none" vector-effect="non-scaling-stroke" stroke-width="2" stroke="rgb(70,70,70)" stroke-linejoin="miter" stroke-linecap="square" stroke-miterlimit="3"/><line x1="238" y1="430.5" x2="206.526" y2="430.5" vector-effect="non-scaling-stroke" stroke-width="2" stroke="rgb(70,70,70)" stroke-linejoin="miter" stroke-linecap="square" stroke-miterlimit="3"/><polygon points="196,429.68,205.526,424.18,205.526,435.18" fill="none" vector-effect="non-scaling-stroke" stroke-width="2" stroke="rgb(70,70,70)" stroke-linejoin="round" stroke-linecap="round" stroke-miterlimit="3"/><path d=" M 323 430.5 C 323 419.738 331.738 411 342.5 411 C 353.262 411 362 419.738 362 430.5 C 362 441.262 353.262 450 342.5 450 C 331.738 450 323 441.262 323 430.5 Z " fill="none" vector-effect="non-scaling-stroke" stroke-width="2" stroke="rgb(70,70,70)" stroke-linejoin="miter" stroke-linecap="square" stroke-miterlimit="3"/><line x1="323" y1="430.5" x2="291.526" y2="430.5" vector-effect="non-scaling-stroke" stroke-width="2" stroke="rgb(70,70,70)" stroke-linejoin="miter" stroke-linecap="square" stroke-miterlimit="3"/><polygon points="281,430.5,290.526,425,290.526,436" fill="none" vector-effect="non-scaling-stroke" stroke-width="2" stroke="rgb(70,70,70)" stroke-linejoin="round" stroke-linecap="round" stroke-miterlimit="3"/><path d=" M 238 520.5 C 238 509.738 246.738 501 257.5 501 C 268.262 501 277 509.738 277 520.5 C 277 531.262 268.262 540 257.5 540 C 246.738 540 238 531.262 238 520.5 Z " fill="none" vector-effect="non-scaling-stroke" stroke-width="2" stroke="rgb(70,70,70)" stroke-linejoin="miter" stroke-linecap="square" stroke-miterlimit="3"/><path d=" M 238 520.5 C 238 509.738 246.738 501 257.5 501 C 268.262 501 277 509.738 277 520.5 C 277 531.262 268.262 540 257.5 540 C 246.738 540 238 531.262 238 520.5 Z " fill="none" vector-effect="non-scaling-stroke" stroke-width="2" stroke="rgb(70,70,70)" stroke-linejoin="miter" stroke-linecap="square" stroke-miterlimit="3"/><line x1="256.5" y1="496" x2="256.5" y2="464.526" vector-effect="non-scaling-stroke" stroke-width="2" stroke="rgb(70,70,70)" stroke-linejoin="miter" stroke-linecap="square" stroke-miterlimit="3"/><polygon points="256.5,454,262,463.526,251,463.526" fill="none" vector-effect="non-scaling-stroke" stroke-width="2" stroke="rgb(70,70,70)" stroke-linejoin="round" stroke-linecap="round" stroke-miterlimit="3"/><g transform="matrix(1,0,0,1,57.5,391)"><text transform="matrix(1,0,0,1,0,9.96)" style="font-family:&quot;Ubuntu Mono&quot;;font-weight:400;font-size:12px;font-style:normal;fill:#000000;stroke:none;">user 1 frame</text></g><g transform="matrix(1,0,0,1,56.5,367)"><text transform="matrix(1,0,0,1,0,9.96)" style="font-family:&quot;Ubuntu Mono&quot;;font-weight:400;font-size:12px;font-style:normal;fill:#000000;stroke:none;">Obeserver query order through frames</text></g><g transform="matrix(1,0,0,1,397.763,449)"><text transform="matrix(1,0,0,1,0,9.96)" style="font-family:&quot;Ubuntu Mono&quot;;font-weight:400;font-size:12px;font-style:normal;fill:#000000;stroke:none;">speculative frame</text></g><g transform="matrix(1,0,0,1,159,424)"><text transform="matrix(1,0,0,1,0,6.64)" style="font-family:&quot;Ubuntu Mono&quot;;font-weight:400;font-size:8px;font-style:normal;fill:#000000;stroke:none;">Create</text><text transform="matrix(1,0,0,1,10,14.64)" style="font-family:&quot;Ubuntu Mono&quot;;font-weight:400;font-size:8px;font-style:normal;fill:#000000;stroke:none;">A</text></g><g transform="matrix(1,0,0,1,78.5,427)"><text transform="matrix(1,0,0,1,0,6.64)" style="font-family:&quot;Ubuntu Mono&quot;;font-weight:400;font-size:8px;font-style:normal;fill:#000000;stroke:none;">Root</text></g><path d=" M 404 430.5 C 404 419.738 412.738 411 423.5 411 C 434.262 411 443 419.738 443 430.5 C 443 441.262 434.262 450 423.5 450 C 412.738 450 404 441.262 404 430.5 Z " fill="none" vector-effect="non-scaling-stroke" stroke-width="2" stroke="rgb(70,70,70)" stroke-linejoin="miter" stroke-linecap="square" stroke-miterlimit="3"/><line x1="404" y1="430.5" x2="372.526" y2="430.5" vector-effect="non-scaling-stroke" stroke-width="2" stroke="rgb(70,70,70)" stroke-linejoin="miter" stroke-linecap="square" stroke-miterlimit="3"/><polygon points="362,430.5,371.526,425,371.526,436" fill="none" vector-effect="non-scaling-stroke" stroke-width="2" stroke="rgb(70,70,70)" stroke-linejoin="round" stroke-linecap="round" stroke-miterlimit="3"/><g transform="matrix(1,0,0,1,410,424)"><text transform="matrix(1,0,0,1,0,6.64)" style="font-family:&quot;Ubuntu Mono&quot;;font-weight:400;font-size:8px;font-style:normal;fill:#000000;stroke:none;">Create</text><text transform="matrix(1,0,0,1,10,14.64)" style="font-family:&quot;Ubuntu Mono&quot;;font-weight:400;font-size:8px;font-style:normal;fill:#000000;stroke:none;">C</text></g><g transform="matrix(1,0,0,1,244.5,423)"><text transform="matrix(1,0,0,1,0,6.64)" style="font-family:&quot;Ubuntu Mono&quot;;font-weight:400;font-size:8px;font-style:normal;fill:#000000;stroke:none;">Update</text><text transform="matrix(1,0,0,1,10,14.64)" style="font-family:&quot;Ubuntu Mono&quot;;font-weight:400;font-size:8px;font-style:normal;fill:#000000;stroke:none;">A</text></g><g transform="matrix(1,0,0,1,244.5,512.5)"><text transform="matrix(1,0,0,1,0,6.64)" style="font-family:&quot;Ubuntu Mono&quot;;font-weight:400;font-size:8px;font-style:normal;fill:#000000;stroke:none;">Update</text><text transform="matrix(1,0,0,1,10,14.64)" style="font-family:&quot;Ubuntu Mono&quot;;font-weight:400;font-size:8px;font-style:normal;fill:#000000;stroke:none;">A</text></g><g transform="matrix(1,0,0,1,329.5,423)"><text transform="matrix(1,0,0,1,0,6.64)" style="font-family:&quot;Ubuntu Mono&quot;;font-weight:400;font-size:8px;font-style:normal;fill:#000000;stroke:none;">Update</text><text transform="matrix(1,0,0,1,10,14.64)" style="font-family:&quot;Ubuntu Mono&quot;;font-weight:400;font-size:8px;font-style:normal;fill:#000000;stroke:none;">A</text></g><g transform="matrix(1,0,0,1,196,489)"><text transform="matrix(1,0,0,1,0,9.96)" style="font-family:&quot;Ubuntu Mono&quot;;font-weight:400;font-size:12px;font-style:normal;fill:#000000;stroke:none;">user 2 </text><text transform="matrix(1,0,0,1,0,21.96)" style="font-family:&quot;Ubuntu Mono&quot;;font-weight:400;font-size:12px;font-style:normal;fill:#000000;stroke:none;">frame</text></g><g transform="matrix(1,0,0,1,161.672,55)"><text transform="matrix(1,0,0,1,0,6.64)" style="font-family:&quot;Ubuntu Mono&quot;;font-weight:400;font-size:8px;font-style:normal;fill:#000000;stroke:none;">an observer selects a </text><text transform="matrix(1,0,0,1,0,14.64)" style="font-family:&quot;Ubuntu Mono&quot;;font-weight:400;font-size:8px;font-style:normal;fill:#000000;stroke:none;">subset of frames to view </text><text transform="matrix(1,0,0,1,0,22.64)" style="font-family:&quot;Ubuntu Mono&quot;;font-weight:400;font-size:8px;font-style:normal;fill:#000000;stroke:none;">and query</text></g><g transform="matrix(1,0,0,1,303.072,67)"><text transform="matrix(1,0,0,1,0,6.64)" style="font-family:&quot;Ubuntu Mono&quot;;font-weight:400;font-size:8px;font-style:normal;fill:#000000;stroke:none;">a writer writes to a </text><text transform="matrix(1,0,0,1,0,14.64)" style="font-family:&quot;Ubuntu Mono&quot;;font-weight:400;font-size:8px;font-style:normal;fill:#000000;stroke:none;">specific frame</text></g><g transform="matrix(1,0,0,1,335.819,163.92)"><text transform="matrix(1,0,0,1,0,6.64)" style="font-family:&quot;Ubuntu Mono&quot;;font-weight:400;font-size:8px;font-style:normal;fill:#000000;stroke:none;">Frames delineate scope. Which parts </text><text transform="matrix(1,0,0,1,0,14.64)" style="font-family:&quot;Ubuntu Mono&quot;;font-weight:400;font-size:8px;font-style:normal;fill:#000000;stroke:none;">are persistent, which are temporary.</text><text transform="matrix(1,0,0,1,0,22.64)" style="font-family:&quot;Ubuntu Mono&quot;;font-weight:400;font-size:8px;font-style:normal;fill:#000000;stroke:none;">Which parts are shared, public or </text><text transform="matrix(1,0,0,1,0,30.64)" style="font-family:&quot;Ubuntu Mono&quot;;font-weight:400;font-size:8px;font-style:normal;fill:#000000;stroke:none;">private.</text></g><path d=" M 82.763 430.5 C 110.296 438.412 139.258 438.422 169.618 430.5 Q 242.188 414.196 251 436 C 259.812 457.804 233.408 534.51 253.75 534 C 274.092 533.49 256.294 457.751 268.763 436 Q 281.232 414.249 345.763 433.25 C 375.859 439.332 402.536 439.342 425.763 433.25" fill="none" vector-effect="non-scaling-stroke" stroke-width="1" stroke="rgb(249,0,0)" stroke-linejoin="miter" stroke-linecap="square" stroke-miterlimit="3"/><line x1="210.981" y1="141.447" x2="210.981" y2="151.992" vector-effect="non-scaling-stroke" stroke-width="1" stroke="rgb(0,0,0)" stroke-linejoin="miter" stroke-linecap="square" stroke-miterlimit="3"/><line x1="240.863" y1="145.097" x2="240.863" y2="166.965" vector-effect="non-scaling-stroke" stroke-width="1" stroke="rgb(0,0,0)" stroke-linejoin="miter" stroke-linecap="square" stroke-miterlimit="3"/><path d=" M 205.745 133.511 L 231.172 143.165 L 218.217 152.992 L 192.79 143.338 L 205.745 133.511 Z " fill="rgb(255,255,255)" vector-effect="non-scaling-stroke" stroke-width="1" stroke="rgb(0,0,0)" stroke-linejoin="miter" stroke-linecap="square" stroke-miterlimit="3"/><path d=" M 207.081 135.693 L 217.84 139.778 L 212.358 143.936 L 201.599 139.851 L 207.081 135.693 Z " fill="rgb(219,218,218)"/><path d=" M 294.836 128.026 L 320.263 137.68 L 307.308 147.507 L 281.882 137.853 L 294.836 128.026 Z " fill="rgb(219,218,218)"/><line x1="302.072" y1="128.269" x2="302.072" y2="138.815" vector-effect="non-scaling-stroke" stroke-width="1" stroke="rgb(0,0,0)" stroke-linejoin="miter" stroke-linecap="square" stroke-miterlimit="3"/><path d=" M 296.836 120.334 L 322.263 129.988 L 309.308 139.815 L 283.882 130.161 L 296.836 120.334 Z " fill="rgb(255,255,255)" vector-effect="non-scaling-stroke" stroke-width="1" stroke="rgb(0,0,0)" stroke-linejoin="miter" stroke-linecap="square" stroke-miterlimit="3"/><path d=" M 233.541 135.27 L 258.967 144.924 L 246.013 154.751 L 220.586 145.097 L 233.541 135.27 Z " fill="rgb(255,255,255)" vector-effect="non-scaling-stroke" stroke-width="1" stroke="rgb(0,0,0)" stroke-linejoin="miter" stroke-linecap="square" stroke-miterlimit="3"/><line x1="229.172" y1="77.17" x2="277.882" y2="151.03" vector-effect="non-scaling-stroke" stroke-width="1" stroke-dasharray="3,12" stroke="rgb(0,0,0)" stroke-linejoin="miter" stroke-linecap="round" stroke-miterlimit="3"/><line x1="229.172" y1="77.17" x2="174.026" y2="154.751" vector-effect="non-scaling-stroke" stroke-width="1" stroke-dasharray="3,12" stroke="rgb(0,0,0)" stroke-linejoin="miter" stroke-linecap="round" stroke-miterlimit="3"/><path d=" M 175.582 157.684 C 175.582 141.272 198.621 127.947 227 127.947 C 255.379 127.947 278.418 141.272 278.418 157.684 C 278.418 174.096 255.379 187.42 227 187.42 C 198.621 187.42 175.582 174.096 175.582 157.684 Z " fill="none" vector-effect="non-scaling-stroke" stroke-width="1" stroke-dasharray="3,12" stroke="rgb(0,0,0)" stroke-linejoin="miter" stroke-linecap="square" stroke-miterlimit="3"/><path d=" M 221.645 79.46 C 221.645 77.506 224.558 75.92 228.145 75.92 C 231.733 75.92 234.645 77.506 234.645 79.46 C 234.645 81.414 231.733 83 228.145 83 C 224.558 83 221.645 81.414 221.645 79.46 Z " fill="rgb(255,255,255)" vector-effect="non-scaling-stroke" stroke-width="1" stroke="rgb(70,70,70)" stroke-linejoin="miter" stroke-linecap="square" stroke-miterlimit="3"/><path d=" M 296.572 92.907 C 296.572 90.953 299.485 89.367 303.072 89.367 C 306.66 89.367 309.572 90.953 309.572 92.907 C 309.572 94.86 306.66 96.447 303.072 96.447 C 299.485 96.447 296.572 94.86 296.572 92.907 Z " fill="rgb(255,255,255)" vector-effect="non-scaling-stroke" stroke-width="1" stroke="rgb(70,70,70)" stroke-linejoin="miter" stroke-linecap="square" stroke-miterlimit="3"/><line x1="303.072" y1="96.447" x2="303.072" y2="127.92" vector-effect="non-scaling-stroke" stroke-width="1" stroke="rgb(0,0,0)" stroke-linejoin="miter" stroke-linecap="square" stroke-miterlimit="3"/><polygon points="303.072,130.074,300.883,126.283,305.261,126.283" fill="rgb(0,0,0)"/><line x1="209.882" y1="129.306" x2="209.882" y2="139.851" vector-effect="non-scaling-stroke" stroke-width="1" stroke="rgb(0,0,0)" stroke-linejoin="miter" stroke-linecap="square" stroke-miterlimit="3"/><path d=" M 207.081 125.161 L 217.84 129.246 L 212.358 133.404 L 201.599 129.319 L 207.081 125.161 Z " fill="rgb(255,255,255)" vector-effect="non-scaling-stroke" stroke-width="1" stroke="rgb(0,0,0)" stroke-linejoin="miter" stroke-linecap="square" stroke-miterlimit="3"/></g></svg>